<svg id="plus-square" xmlns="http://www.w3.org/2000/svg" width="18.498" height="18.498" viewBox="0 0 18.498 18.498">
  <path id="패스_405" data-name="패스 405" d="M13.077,7.875a.578.578,0,0,1,.578.578v4.624a.578.578,0,0,1-.578.578H8.453a.578.578,0,0,1,0-1.156H12.5V8.453A.578.578,0,0,1,13.077,7.875Z" transform="translate(-3.829 -3.829)" fill="#155110" fill-rule="evenodd"/>
  <path id="패스_406" data-name="패스 406" d="M16.875,17.453a.578.578,0,0,1,.578-.578h4.624a.578.578,0,1,1,0,1.156H18.031v4.046a.578.578,0,0,1-1.156,0Z" transform="translate(-8.204 -8.204)" fill="#155110" fill-rule="evenodd"/>
  <path id="패스_407" data-name="패스 407" d="M16.185,1.156H2.312A1.156,1.156,0,0,0,1.156,2.312V16.185a1.156,1.156,0,0,0,1.156,1.156H16.185a1.156,1.156,0,0,0,1.156-1.156V2.312A1.156,1.156,0,0,0,16.185,1.156ZM2.312,0A2.312,2.312,0,0,0,0,2.312V16.185A2.312,2.312,0,0,0,2.312,18.5H16.185A2.312,2.312,0,0,0,18.5,16.185V2.312A2.312,2.312,0,0,0,16.185,0Z" fill="#155110" fill-rule="evenodd"/>
</svg>
