<svg xmlns="http://www.w3.org/2000/svg" width="30" height="30" viewBox="0 0 30 30">
  <g id="그룹_142" data-name="그룹 142" transform="translate(-15 -46)">
    <rect id="사각형_157" data-name="사각형 157" width="30" height="30" transform="translate(15 46)" fill="none"/>
    <g id="menu" transform="translate(12 43.5)">
      <path id="패스_400" data-name="패스 400" d="M3,9A1.5,1.5,0,0,1,4.5,7.5h27a1.5,1.5,0,0,1,0,3H4.5A1.5,1.5,0,0,1,3,9Z" fill="#4e4e4e"/>
      <path id="패스_401" data-name="패스 401" d="M3,18.048a1.5,1.5,0,0,1,1.5-1.5h27a1.5,1.5,0,0,1,0,3H4.5A1.5,1.5,0,0,1,3,18.048Z" transform="translate(0 -0.048)" fill="#4e4e4e"/>
      <path id="패스_402" data-name="패스 402" d="M4.5,25.6a1.5,1.5,0,0,0,0,3h27a1.5,1.5,0,0,0,0-3Z" transform="translate(0 -0.096)" fill="#4e4e4e"/>
    </g>
  </g>
</svg>
