<svg xmlns="http://www.w3.org/2000/svg" width="23.063" height="23.063" viewBox="0 0 23.063 23.063">
  <g id="arrow-down-circle" transform="matrix(-1, -0.017, 0.017, -1, 22.668, 23.063)">
    <path id="패스_408" data-name="패스 408" d="M11.336,21.254a9.919,9.919,0,1,0-9.919-9.919A9.919,9.919,0,0,0,11.336,21.254Zm0,1.417A11.336,11.336,0,1,0,0,11.336,11.336,11.336,0,0,0,11.336,22.671Z" fill="#155110" fill-rule="evenodd"/>
    <path id="패스_409" data-name="패스 409" d="M10.332,17.081a.708.708,0,0,1,1,0l3.749,3.751,3.75-3.751a.709.709,0,1,1,1,1l-4.251,4.251a.708.708,0,0,1-1,0l-4.251-4.251a.708.708,0,0,1,0-1Z" transform="translate(-3.748 -6.247)" fill="#155110" fill-rule="evenodd"/>
    <path id="패스_410" data-name="패스 410" d="M17.583,10.125a.708.708,0,0,1,.708.708v7.085a.708.708,0,0,1-1.417,0V10.833A.708.708,0,0,1,17.583,10.125Z" transform="translate(-6.248 -3.749)" fill="#155110" fill-rule="evenodd"/>
  </g>
</svg>
