<svg xmlns="http://www.w3.org/2000/svg" xmlns:xlink="http://www.w3.org/1999/xlink" width="85" height="85.051" viewBox="0 0 85 85.051">
  <defs>
    <clipPath id="clip-path">
      <rect id="사각형_36" data-name="사각형 36" width="85" height="85.051" fill="none"/>
    </clipPath>
  </defs>
  <g id="그룹_63" data-name="그룹 63" transform="translate(-368 -800.503)">
    <path id="패스_406" data-name="패스 406" d="M26.5,0A26.5,26.5,0,1,1,0,26.5,26.5,26.5,0,0,1,26.5,0Z" transform="translate(384 812)" fill="#fff"/>
    <g id="상단_호텔로고" transform="translate(368 800.503)">
      <g id="그룹_5" data-name="그룹 5" clip-path="url(#clip-path)">
        <path id="패스_97" data-name="패스 97" d="M184.123,54.788a3.193,3.193,0,0,1-4.161.955,3.224,3.224,0,0,1,4.161-.955" transform="translate(-148.639 -16.535)" fill="#afce0c"/>
        <path id="패스_98" data-name="패스 98" d="M184,52.973a3.192,3.192,0,0,1-4.253-.373,3.223,3.223,0,0,1,4.253.373" transform="translate(-148.642 -16.567)" fill="#afce0c"/>
        <path id="패스_99" data-name="패스 99" d="M184.338,51.061a3.192,3.192,0,0,1-4.047-1.357,3.223,3.223,0,0,1,4.047,1.357" transform="translate(-148.635 -16.601)" fill="#afce0c"/>
        <path id="패스_100" data-name="패스 100" d="M185.106,49.172a3.192,3.192,0,0,1-3.745-2.049,3.222,3.222,0,0,1,3.745,2.049" transform="translate(-148.621 -16.632)" fill="#afce0c"/>
        <path id="패스_101" data-name="패스 101" d="M186.267,47.765a3.194,3.194,0,0,1-2.982-3.056,3.225,3.225,0,0,1,2.982,3.056" transform="translate(-148.597 -16.663)" fill="#afce0c"/>
        <path id="패스_102" data-name="패스 102" d="M187.712,46.644a3.2,3.2,0,0,1-2.071-3.735,3.225,3.225,0,0,1,2.071,3.735" transform="translate(-148.568 -16.687)" fill="#afce0c"/>
        <path id="패스_103" data-name="패스 103" d="M189.481,45.908a3.2,3.2,0,0,1-1.19-4.1,3.227,3.227,0,0,1,1.19,4.1" transform="translate(-148.538 -16.702)" fill="#afce0c"/>
        <path id="패스_104" data-name="패스 104" d="M191.259,45.708a3.2,3.2,0,0,1-.2-4.267,3.228,3.228,0,0,1,.2,4.267" transform="translate(-148.508 -16.706)" fill="#afce0c"/>
        <path id="패스_105" data-name="패스 105" d="M193.107,45.944a3.2,3.2,0,0,1,.9-4.175,3.227,3.227,0,0,1-.9,4.175" transform="translate(-148.479 -16.702)" fill="#afce0c"/>
        <path id="패스_106" data-name="패스 106" d="M194.782,46.69a3.2,3.2,0,0,1,1.876-3.836,3.226,3.226,0,0,1-1.876,3.836" transform="translate(-148.454 -16.688)" fill="#afce0c"/>
        <path id="패스_107" data-name="패스 107" d="M196.2,47.817a3.2,3.2,0,0,1,2.857-3.173,3.226,3.226,0,0,1-2.857,3.173" transform="translate(-148.434 -16.664)" fill="#afce0c"/>
        <path id="패스_108" data-name="패스 108" d="M197.422,49.278a3.194,3.194,0,0,1,3.5-2.443,3.223,3.223,0,0,1-3.5,2.443" transform="translate(-148.419 -16.635)" fill="#afce0c"/>
        <path id="패스_109" data-name="패스 109" d="M198.123,51.122a3.192,3.192,0,0,1,4-1.49,3.223,3.223,0,0,1-4,1.49" transform="translate(-148.41 -16.601)" fill="#afce0c"/>
        <path id="패스_110" data-name="패스 110" d="M198.553,52.986a3.192,3.192,0,0,1,4.249-.4,3.221,3.221,0,0,1-4.249.4" transform="translate(-148.405 -16.567)" fill="#afce0c"/>
        <path id="패스_111" data-name="패스 111" d="M198.314,54.958a3.19,3.19,0,0,1,4.223.62,3.222,3.222,0,0,1-4.223-.62" transform="translate(-148.408 -16.535)" fill="#afce0c"/>
        <path id="패스_112" data-name="패스 112" d="M187.24,54.192s-2.579-.334-2.949,1.924c0,0,2.5.241,2.949-1.924" transform="translate(-148.584 -16.538)" fill="#005950"/>
        <path id="패스_113" data-name="패스 113" d="M186.829,48.47s.025,2.622,2.458,2.641c0,0-.113-2.532-2.458-2.641" transform="translate(-148.553 -16.614)" fill="#005950"/>
        <path id="패스_114" data-name="패스 114" d="M189.811,46.536a2.747,2.747,0,0,0,.2,3.81,2.859,2.859,0,0,0-.2-3.81" transform="translate(-148.524 -16.639)" fill="#005950"/>
        <path id="패스_115" data-name="패스 115" d="M194.022,47.172a2.748,2.748,0,0,0-.186,3.811,2.858,2.858,0,0,0,.186-3.811" transform="translate(-148.473 -16.631)" fill="#005950"/>
        <path id="패스_116" data-name="패스 116" d="M197.111,50.695a2.745,2.745,0,0,0-3.474,1.572,2.856,2.856,0,0,0,3.474-1.572" transform="translate(-148.467 -16.586)" fill="#005950"/>
        <path id="패스_117" data-name="패스 117" d="M197.906,55.893a2.744,2.744,0,0,0-3.445-1.635,2.856,2.856,0,0,0,3.445,1.635" transform="translate(-148.456 -16.539)" fill="#005950"/>
        <path id="패스_118" data-name="패스 118" d="M192.559,47.923a3.386,3.386,0,0,0-1.493,4.531,3.522,3.522,0,0,0,1.493-4.531" transform="translate(-148.504 -16.621)" fill="#005950"/>
        <path id="패스_119" data-name="패스 119" d="M188.908,52.161a2.93,2.93,0,0,0-4.139-.862,3.082,3.082,0,0,0,4.139.862" transform="translate(-148.578 -16.584)" fill="#005950"/>
        <path id="패스_120" data-name="패스 120" d="M187.134,62.719l-8.18.006V63.7l11.382-.008-.005-7.318s-.059-3.248-4-3.245c0,0,2.884.735,2.811,3.358l0,3.567a3.628,3.628,0,0,1-1.666,2.562.6.6,0,0,1-.34.108" transform="translate(-148.652 -16.552)" fill="#005950"/>
        <path id="패스_121" data-name="패스 121" d="M195.052,62.714l8.14-.006v.971l-11.382.008-.005-7.318s.055-3.248,4-3.251c0,0-2.883.74-2.807,3.363l0,3.565a3.621,3.621,0,0,0,1.636,2.538.716.716,0,0,0,.412.131" transform="translate(-148.49 -16.552)" fill="#005950"/>
        <line id="선_3" data-name="선 3" x2="0.005" y2="7.9" transform="translate(35.709 52.209)" fill="#839b80"/>
      </g>
    </g>
  </g>
</svg>
