<svg xmlns="http://www.w3.org/2000/svg" width="27" height="27" viewBox="0 0 27 27">
  <g id="그룹_104" data-name="그룹 104" transform="translate(-330.5 -575.5)">
    <circle id="타원_18" data-name="타원 18" cx="13.5" cy="13.5" r="13.5" transform="translate(330.5 575.5)" fill="#fff"/>
    <path id="Icon_open-heart" data-name="Icon open-heart" d="M2.973,0a2.994,2.994,0,0,0-2.1.877A2.941,2.941,0,0,0,0,2.973a2.994,2.994,0,0,0,.877,2.1l5.069,5.069,5.069-5.069a2.941,2.941,0,0,0,.877-2.1,2.994,2.994,0,0,0-.877-2.1A2.941,2.941,0,0,0,8.918,0a2.994,2.994,0,0,0-2.1.877,2.941,2.941,0,0,0-.877,2.1,2.994,2.994,0,0,0-.877-2.1A2.941,2.941,0,0,0,2.973,0Z" transform="translate(338.054 584.708)" fill="#d80a0a"/>
  </g>
</svg>
