<svg xmlns="http://www.w3.org/2000/svg" width="25.051" height="25.051" viewBox="0 0 25.051 25.051">
  <g id="그룹_172" data-name="그룹 172" transform="translate(-129.858 -115.228)">
    <circle id="타원_3" data-name="타원 3" cx="12.525" cy="12.525" r="12.525" transform="translate(129.858 115.228)" fill="#f3eadb"/>
    <g id="그룹_19" data-name="그룹 19" transform="translate(131.82 119.001)">
      <g id="그룹_12" data-name="그룹 12" transform="translate(6.863 0)">
        <path id="패스_9" data-name="패스 9" d="M369.829,445.4a.991.991,0,0,1-1.292.3A.991.991,0,0,1,369.829,445.4Z" transform="translate(-368.218 -441.206)" fill="#f0cf34"/>
        <path id="패스_10" data-name="패스 10" d="M367.322,416.475a.991.991,0,0,1-1.32-.117A.991.991,0,0,1,367.322,416.475Z" transform="translate(-365.75 -412.856)" fill="#f0cf34"/>
        <path id="패스_11" data-name="패스 11" d="M373.753,386.655a.991.991,0,0,1-1.256-.422A.991.991,0,0,1,373.753,386.655Z" transform="translate(-372.074 -383.639)" fill="#f0cf34"/>
        <path id="패스_12" data-name="패스 12" d="M386.424,358.168a.991.991,0,0,1-1.162-.636A.991.991,0,0,1,386.424,358.168Z" transform="translate(-384.502 -355.748)" fill="#f0cf34"/>
        <path id="패스_13" data-name="패스 13" d="M409.138,330.644a.991.991,0,0,1-.925-.949A.991.991,0,0,1,409.138,330.644Z" transform="translate(-406.847 -328.669)" fill="#f0cf34"/>
        <path id="패스_14" data-name="패스 14" d="M436.286,309.424a.991.991,0,0,1-.642-1.159A.991.991,0,0,1,436.286,309.424Z" transform="translate(-433.537 -307.805)" fill="#f0cf34"/>
        <path id="패스_15" data-name="패스 15" d="M464.714,296.427a.991.991,0,0,1-.368-1.273A.991.991,0,0,1,464.714,296.427Z" transform="translate(-461.407 -295.04)" fill="#f0cf34"/>
        <path id="패스_16" data-name="패스 16" d="M492.531,292.146a.991.991,0,0,1-.061-1.324A.991.991,0,0,1,492.531,292.146Z" transform="translate(-488.663 -290.822)" fill="#f0cf34"/>
        <path id="패스_17" data-name="패스 17" d="M520.29,296.044a.991.991,0,0,1,.279-1.3A.991.991,0,0,1,520.29,296.044Z" transform="translate(-515.839 -294.645)" fill="#f0cf34"/>
        <path id="패스_18" data-name="패스 18" d="M543.8,308.893a.991.991,0,0,1,.583-1.19A.991.991,0,0,1,543.8,308.893Z" transform="translate(-538.82 -307.258)" fill="#f0cf34"/>
        <path id="패스_19" data-name="패스 19" d="M562.064,330.029a.991.991,0,0,1,.888-.984A.991.991,0,0,1,562.064,330.029Z" transform="translate(-556.639 -328.036)" fill="#f0cf34"/>
        <path id="패스_20" data-name="패스 20" d="M576.585,355.838a.991.991,0,0,1,1.087-.757A.991.991,0,0,1,576.585,355.838Z" transform="translate(-570.776 -353.383)" fill="#f0cf34"/>
        <path id="패스_21" data-name="패스 21" d="M584.925,386.581a.991.991,0,0,1,1.242-.462A.991.991,0,0,1,584.925,386.581Z" transform="translate(-578.896 -383.543)" fill="#f0cf34"/>
        <path id="패스_22" data-name="패스 22" d="M590.023,416.529a.991.991,0,0,1,1.319-.123A.991.991,0,0,1,590.023,416.529Z" transform="translate(-583.86 -412.902)" fill="#f0cf34"/>
        <path id="패스_23" data-name="패스 23" d="M587.162,445.692a.991.991,0,0,1,1.311.193A.991.991,0,0,1,587.162,445.692Z" transform="translate(-581.074 -441.443)" fill="#f0cf34"/>
        <path id="패스_24" data-name="패스 24" d="M421.017,442.486s-.8-.1-.916.6C420.1,443.082,420.878,443.157,421.017,442.486Z" transform="translate(-418.422 -438.478)" fill="#658361"/>
        <path id="패스_25" data-name="패스 25" d="M450.395,374.517s.008.814.762.82C451.157,375.337,451.123,374.551,450.395,374.517Z" transform="translate(-447.916 -372.308)" fill="#658361"/>
        <path id="패스_26" data-name="패스 26" d="M477.847,351.507a.852.852,0,0,0,.061,1.182A.887.887,0,0,0,477.847,351.507Z" transform="translate(-474.433 -349.906)" fill="#658361"/>
        <path id="패스_27" data-name="패스 27" d="M525.722,359.121a.852.852,0,0,0-.059,1.182A.887.887,0,0,0,525.722,359.121Z" transform="translate(-520.985 -357.319)" fill="#658361"/>
        <path id="패스_28" data-name="패스 28" d="M532.548,399.387a.852.852,0,0,0-1.079.487A.887.887,0,0,0,532.548,399.387Z" transform="translate(-526.851 -396.477)" fill="#658361"/>
        <path id="패스_29" data-name="패스 29" d="M542.334,442.241a.852.852,0,0,0-1.069-.508A.887.887,0,0,0,542.334,442.241Z" transform="translate(-536.388 -437.704)" fill="#658361"/>
        <path id="패스_30" data-name="패스 30" d="M497.033,368.051a1.05,1.05,0,0,0-.464,1.406A1.093,1.093,0,0,0,497.033,368.051Z" transform="translate(-492.761 -366.013)" fill="#658361"/>
        <path id="패스_31" data-name="패스 31" d="M427.121,401.978a.91.91,0,0,0-1.285-.268A.957.957,0,0,0,427.121,401.978Z" transform="translate(-424.005 -398.615)" fill="#658361"/>
        <path id="패스_32" data-name="패스 32" d="M359,432.933h-2.54v.3H360v-2.271a1.091,1.091,0,0,0-1.243-1.008s.9.229.872,1.043v1.106a1.126,1.126,0,0,1-.518.795A.184.184,0,0,1,359,432.933Z" transform="translate(-356.464 -426.284)" fill="#658361"/>
        <path id="패스_33" data-name="패스 33" d="M510.64,432.933h2.527v.3h-3.534v-2.271a1.091,1.091,0,0,1,1.243-1.008s-.9.229-.872,1.043v1.106a1.123,1.123,0,0,0,.507.788A.222.222,0,0,0,510.64,432.933Z" transform="translate(-505.592 -426.284)" fill="#658361"/>
      </g>
      <g id="그룹_14" data-name="그룹 14" transform="translate(1.558 7.962)">
        <g id="그룹_13" data-name="그룹 13" transform="translate(0 0.489)">
          <path id="패스_34" data-name="패스 34" d="M155.436,613.322h.232l.517,2.155.5-2.155h.255l-.556,2.464h-.4Z" transform="translate(-155.436 -613.262)" fill="#839b80"/>
          <rect id="사각형_7" data-name="사각형 7" width="0.27" height="2.464" transform="translate(2.387 0.06)" fill="#839b80"/>
          <path id="패스_35" data-name="패스 35" d="M297.013,613.574h-.284V611.11h.116l.116.259s.122-.319.4-.319a.4.4,0,0,1,.423.411v.319l-.24,0v-.289a.215.215,0,0,0-.05-.142.225.225,0,0,0-.237-.059.459.459,0,0,0-.246.426Z" transform="translate(-293 -611.05)" fill="#839b80"/>
          <rect id="사각형_8" data-name="사각형 8" width="0.263" height="2.464" transform="translate(5.607 0.06)" fill="#839b80"/>
          <rect id="사각형_9" data-name="사각형 9" width="0.263" height="2.464" transform="translate(9.222 0.06)" fill="#839b80"/>
          <line id="선_3" data-name="선 3" y2="2.451" transform="translate(6.982 0.072)" fill="#839b80"/>
          <path id="패스_36" data-name="패스 36" d="M421,613.855a.49.49,0,0,0-.23-.055l-.744,0v2.451h.687a.8.8,0,0,0,.215-.048.475.475,0,0,0,.307-.446v-1.506A.455.455,0,0,0,421,613.855Zm-.033,1.887a.283.283,0,0,1-.206.273h0a.089.089,0,0,1-.023,0H420.3v-2.007h.4a.238.238,0,0,1,.089.015.262.262,0,0,1,.114.091.344.344,0,0,1,.064.2Z" transform="translate(-413.04 -613.724)" fill="#839b80"/>
          <path id="패스_37" data-name="패스 37" d="M555.73,612.11c-.012-.363-.456-.4-.456-.4h-.317a.419.419,0,0,0-.429.429v.286h.257l.006-.274a.226.226,0,0,1,.1-.185.213.213,0,0,1,.12-.035h.2a.264.264,0,0,1,.091.014.25.25,0,0,1,.114.084.3.3,0,0,1,.059.185l-.007.655-.583-.008a.39.39,0,0,0-.386.413v.533c0,.17.034.209.034.209.112.278.491.266.491.266a.547.547,0,0,0,.487-.3h.035l.085.23h.1S555.742,612.473,555.73,612.11Zm-.263,1.614a.44.44,0,0,1-.444.317s-.263.042-.266-.212V613.3s0-.2.166-.236h.544Z" transform="translate(-543.963 -611.694)" fill="#839b80"/>
          <path id="패스_38" data-name="패스 38" d="M642.461,611.4v2.451h.263v-1.839a.481.481,0,0,1,.163-.366.342.342,0,0,1,.162-.08s.363-.062.386.154v2.132h.27v-2.069a.444.444,0,0,0-.1-.284.532.532,0,0,0-.524-.153.517.517,0,0,0-.413.269l-.085-.214Z" transform="translate(-629.609 -611.332)" fill="#839b80"/>
        </g>
        <path id="패스_39" data-name="패스 39" d="M727.852,593.156V595q0,.355.013.552h-.289A5.086,5.086,0,0,0,727.6,595v-1.381c-.061.131-.123.26-.254.506-.094-.062-.136-.081-.232-.151a3.71,3.71,0,0,0,.362-.677,3.6,3.6,0,0,0,.276-.7c.125.031.156.031.312.062A1.787,1.787,0,0,0,727.852,593.156Zm1.052.171q0-.592-.013-.789h.276q-.013.171-.013.789h.486q.315,0,.434-.013v.25q-.118-.013-.408-.013h-.449a3.283,3.283,0,0,0,1,1.382,2.641,2.641,0,0,1-.246.222,3.126,3.126,0,0,1-.815-1.183v1.157c0,.123,0,.272.013.447h-.289a4.061,4.061,0,0,0,.026-.447v-1.157a4.194,4.194,0,0,1-.684,1.21c-.124-.093-.156-.124-.249-.186a4.058,4.058,0,0,0,.841-1.444h-.369q-.224,0-.381.013v-.25q.21.013.394.013Z" transform="translate(-712.03 -592.538)" fill="#f0cf34"/>
      </g>
      <g id="그룹_18" data-name="그룹 18" transform="translate(0 11.932)">
        <g id="그룹_15" data-name="그룹 15" transform="translate(0 0.006)">
          <path id="패스_40" data-name="패스 40" d="M96.4,745.1h.217v.833h.57V745.1H97.4v1.883h-.226v-.865h-.548v.865H96.4Z" transform="translate(-96.403 -745.051)" fill="#849c81"/>
          <path id="패스_41" data-name="패스 41" d="M164.8,743.506c0-.02-.077-.3-.491-.3,0,0-.432-.018-.5.3v1.335a.261.261,0,0,0,.045.15.518.518,0,0,0,.453.208s.408.008.48-.282a.341.341,0,0,0,.009-.081C164.8,744.632,164.8,743.53,164.8,743.506Zm-.2.063V744.8a.215.215,0,0,1-.185.214.521.521,0,0,1-.119,0,.3.3,0,0,1-.2-.061.171.171,0,0,1-.063-.134v-1.233a.178.178,0,0,1,.1-.163.422.422,0,0,1,.185-.029C164.623,743.392,164.6,743.569,164.6,743.569Z" transform="translate(-162.034 -743.207)" fill="#849c81"/>
          <path id="패스_42" data-name="패스 42" d="M223.848,745.268h.371v1.738h.213v-1.738h.371V745.1h-.955Z" transform="translate(-220.485 -745.051)" fill="#849c81"/>
          <path id="패스_43" data-name="패스 43" d="M284.6,745.264h.625V745.1H284.4v1.888h.855v-.167l-.647,0v-.715h.507v-.172h-.507Z" transform="translate(-279.436 -745.051)" fill="#849c81"/>
          <path id="패스_44" data-name="패스 44" d="M343.059,745.1v1.906h.751v-.19h-.543V745.1Z" transform="translate(-336.55 -745.051)" fill="#849c81"/>
        </g>
        <path id="패스_45" data-name="패스 45" d="M622.3,743.624h.212v-.266a.369.369,0,0,0-.329-.381h-.3a.1.1,0,0,0-.025,0h0a.353.353,0,0,0-.28.352v.03a.692.692,0,0,0,.2.482l.5.517a.247.247,0,0,1,.055.151v.139s.008.149-.271.149a.491.491,0,0,1-.084-.009.271.271,0,0,1-.219-.266v-.212h-.2v.246a.378.378,0,0,0,.314.4l.008,0h.307a.365.365,0,0,0,.2-.055.245.245,0,0,0,.12-.192l0-.223a.493.493,0,0,0-.149-.362l-.475-.462a.366.366,0,0,1-.111-.263v0a.242.242,0,0,1,.265-.242h.014a.242.242,0,0,1,.239.243Z" transform="translate(-607.707 -742.977)" fill="#849c81"/>
        <path id="패스_46" data-name="패스 46" d="M868.3,743.624h.212v-.266a.369.369,0,0,0-.329-.381h-.3a.1.1,0,0,0-.025,0h0a.353.353,0,0,0-.28.352v.03a.692.692,0,0,0,.2.482l.5.517a.247.247,0,0,1,.055.151v.139s.008.149-.271.149a.493.493,0,0,1-.084-.009.271.271,0,0,1-.219-.266v-.212h-.2v.246a.378.378,0,0,0,.314.4l.008,0h.307a.365.365,0,0,0,.2-.055.245.245,0,0,0,.12-.192l0-.223a.494.494,0,0,0-.149-.362l-.475-.462a.366.366,0,0,1-.111-.263v0a.242.242,0,0,1,.265-.242h.014a.242.242,0,0,1,.239.243Z" transform="translate(-847.215 -742.977)" fill="#849c81"/>
        <g id="그룹_16" data-name="그룹 16" transform="translate(10.716 0.05)">
          <path id="패스_47" data-name="패스 47" d="M503.117,746.081s.224-.122.236-.232v-.662a.245.245,0,0,0-.028-.115.41.41,0,0,0-.189-.176.256.256,0,0,0-.112-.025h-.551l0,1.906h.212v-.7h.247l.342.7h.236Zm-.094-.177h-.348v-.83h.372a.172.172,0,0,1,.112.142v.583C503.147,745.892,503.023,745.9,503.023,745.9Z" transform="translate(-502.469 -744.871)" fill="#849c81"/>
        </g>
        <g id="그룹_17" data-name="그룹 17" transform="translate(17.313 0.05)">
          <path id="패스_48" data-name="패스 48" d="M753.117,746.081s.224-.122.236-.232v-.662a.245.245,0,0,0-.028-.115.411.411,0,0,0-.189-.176.256.256,0,0,0-.112-.025h-.551l0,1.906h.212v-.7h.247l.342.7h.236Zm-.094-.177h-.348v-.83h.372a.172.172,0,0,1,.112.142v.583C753.147,745.892,753.023,745.9,753.023,745.9Z" transform="translate(-752.469 -744.871)" fill="#849c81"/>
        </g>
        <path id="패스_49" data-name="패스 49" d="M687.967,744.494c0-.02-.076-.3-.486-.3,0,0-.427-.018-.49.3v1.319a.259.259,0,0,0,.045.148.513.513,0,0,0,.448.206s.4.008.474-.279a.341.341,0,0,0,.008-.08C687.968,745.607,687.969,744.519,687.967,744.494Zm-.2.063v1.213a.213.213,0,0,1-.183.212.517.517,0,0,1-.117,0,.3.3,0,0,1-.2-.06.17.17,0,0,1-.063-.133v-1.219a.176.176,0,0,1,.1-.161.416.416,0,0,1,.183-.029C687.793,744.381,687.766,744.557,687.766,744.557Z" transform="translate(-671.407 -744.167)" fill="#849c81"/>
        <path id="패스_50" data-name="패스 50" d="M564.886,745.182h.609v-.162h-.807V746.9h.833v-.167l-.63,0v-.711h.494v-.171h-.494Z" transform="translate(-552.33 -744.966)" fill="#849c81"/>
        <path id="패스_51" data-name="패스 51" d="M411.408,744.056a.3.3,0,0,1-.139-.187.314.314,0,0,1-.014-.1v-.291a.123.123,0,0,1,.08-.117.554.554,0,0,1,.194-.034.451.451,0,0,1,.132.013.179.179,0,0,1,.126.174v.327h.192l.008-.287a.385.385,0,0,0-.127-.3.342.342,0,0,0-.238-.086h-.164a.739.739,0,0,0-.165.033c-.1.029-.231.1-.239.208v.379a.405.405,0,0,0,.137.3s-.193.081-.209.226v.521a.281.281,0,0,0,.091.211l.02.016a.447.447,0,0,0,.276.09h.3a.306.306,0,0,0,.281-.164.42.42,0,0,0,.05-.206v-.524h.226v-.2Zm.359.741a.214.214,0,0,1-.145.2h0a.136.136,0,0,1-.041.006h-.212a.18.18,0,0,1-.181-.151V744.4a.224.224,0,0,1,.133-.169h.453Z" transform="translate(-402.68 -743.165)" fill="#849c81"/>
        <path id="패스_52" data-name="패스 52" d="M812.412,745.4h.371v1.738H813V745.4h.371v-.167h-.955Z" transform="translate(-793.517 -745.175)" fill="#849c81"/>
      </g>
    </g>
  </g>
</svg>
