<svg id="상단_호텔로고" xmlns="http://www.w3.org/2000/svg" xmlns:xlink="http://www.w3.org/1999/xlink" width="83.942" height="84" viewBox="0 0 83.942 84">
  <defs>
    <clipPath id="clip-path">
      <rect id="사각형_36" data-name="사각형 36" width="83.942" height="84" fill="none"/>
    </clipPath>
  </defs>
  <g id="그룹_5" data-name="그룹 5" clip-path="url(#clip-path)">
    <path id="패스_97" data-name="패스 97" d="M184.071,54.783a3.153,3.153,0,0,1-4.109.944,3.183,3.183,0,0,1,4.109-.944" transform="translate(-149.029 -17.003)" fill="#afce0c"/>
    <path id="패스_98" data-name="패스 98" d="M183.947,52.961a3.152,3.152,0,0,1-4.2-.368,3.183,3.183,0,0,1,4.2.368" transform="translate(-149.029 -17.005)" fill="#afce0c"/>
    <path id="패스_99" data-name="패스 99" d="M184.288,51.041a3.152,3.152,0,0,1-4-1.34,3.183,3.183,0,0,1,4,1.34" transform="translate(-149.029 -17.007)" fill="#afce0c"/>
    <path id="패스_100" data-name="패스 100" d="M185.059,49.145a3.152,3.152,0,0,1-3.7-2.023,3.182,3.182,0,0,1,3.7,2.023" transform="translate(-149.029 -17.008)" fill="#afce0c"/>
    <path id="패스_101" data-name="패스 101" d="M186.23,47.727a3.155,3.155,0,0,1-2.945-3.018,3.185,3.185,0,0,1,2.945,3.018" transform="translate(-149.029 -17.01)" fill="#afce0c"/>
    <path id="패스_102" data-name="패스 102" d="M187.686,46.6a3.157,3.157,0,0,1-2.045-3.689,3.185,3.185,0,0,1,2.045,3.689" transform="translate(-149.029 -17.011)" fill="#afce0c"/>
    <path id="패스_103" data-name="패스 103" d="M189.462,45.858a3.157,3.157,0,0,1-1.175-4.051,3.187,3.187,0,0,1,1.175,4.051" transform="translate(-149.029 -17.012)" fill="#afce0c"/>
    <path id="패스_104" data-name="패스 104" d="M191.248,45.655a3.158,3.158,0,0,1-.2-4.214,3.188,3.188,0,0,1,.2,4.214" transform="translate(-149.029 -17.012)" fill="#afce0c"/>
    <path id="패스_105" data-name="패스 105" d="M193.1,45.893a3.156,3.156,0,0,1,.884-4.124,3.187,3.187,0,0,1-.884,4.124" transform="translate(-149.029 -17.012)" fill="#afce0c"/>
    <path id="패스_106" data-name="패스 106" d="M194.781,46.643a3.156,3.156,0,0,1,1.853-3.789,3.186,3.186,0,0,1-1.853,3.789" transform="translate(-149.029 -17.011)" fill="#afce0c"/>
    <path id="패스_107" data-name="패스 107" d="M196.2,47.778a3.155,3.155,0,0,1,2.821-3.134,3.186,3.186,0,0,1-2.821,3.134" transform="translate(-149.029 -17.01)" fill="#afce0c"/>
    <path id="패스_108" data-name="패스 108" d="M197.422,49.248a3.154,3.154,0,0,1,3.457-2.413,3.183,3.183,0,0,1-3.457,2.413" transform="translate(-149.029 -17.008)" fill="#afce0c"/>
    <path id="패스_109" data-name="패스 109" d="M198.123,51.1a3.153,3.153,0,0,1,3.95-1.472,3.183,3.183,0,0,1-3.95,1.472" transform="translate(-149.029 -17.007)" fill="#afce0c"/>
    <path id="패스_110" data-name="패스 110" d="M198.553,52.974a3.152,3.152,0,0,1,4.2-.4,3.181,3.181,0,0,1-4.2.4" transform="translate(-149.029 -17.005)" fill="#afce0c"/>
    <path id="패스_111" data-name="패스 111" d="M198.314,54.951a3.15,3.15,0,0,1,4.17.612,3.182,3.182,0,0,1-4.17-.612" transform="translate(-149.029 -17.003)" fill="#afce0c"/>
    <path id="패스_112" data-name="패스 112" d="M187.2,54.192s-2.547-.33-2.912,1.9c0,0,2.471.238,2.912-1.9" transform="translate(-149.029 -17.003)" fill="#155110"/>
    <path id="패스_113" data-name="패스 113" d="M186.829,48.47s.025,2.59,2.427,2.609c0,0-.112-2.5-2.427-2.609" transform="translate(-149.029 -17.007)" fill="#155110"/>
    <path id="패스_114" data-name="패스 114" d="M189.8,46.536A2.713,2.713,0,0,0,190,50.3a2.824,2.824,0,0,0-.2-3.763" transform="translate(-149.029 -17.009)" fill="#155110"/>
    <path id="패스_115" data-name="패스 115" d="M194.011,47.172a2.714,2.714,0,0,0-.184,3.764,2.823,2.823,0,0,0,.184-3.764" transform="translate(-149.029 -17.008)" fill="#155110"/>
    <path id="패스_116" data-name="패스 116" d="M197.068,50.693a2.71,2.71,0,0,0-3.431,1.553,2.82,2.82,0,0,0,3.431-1.553" transform="translate(-149.029 -17.006)" fill="#155110"/>
    <path id="패스_117" data-name="패스 117" d="M197.863,55.871a2.71,2.71,0,0,0-3.4-1.615,2.82,2.82,0,0,0,3.4,1.615" transform="translate(-149.029 -17.003)" fill="#155110"/>
    <path id="패스_118" data-name="패스 118" d="M192.536,47.923a3.344,3.344,0,0,0-1.474,4.475,3.479,3.479,0,0,0,1.474-4.475" transform="translate(-149.029 -17.008)" fill="#155110"/>
    <path id="패스_119" data-name="패스 119" d="M188.856,52.143a2.893,2.893,0,0,0-4.087-.852,3.043,3.043,0,0,0,4.087.852" transform="translate(-149.029 -17.006)" fill="#155110"/>
    <path id="패스_120" data-name="패스 120" d="M187.032,62.6l-8.078.006v.959l11.24-.008-.005-7.228s-.058-3.208-3.955-3.205c0,0,2.848.725,2.776,3.316l0,3.522a3.583,3.583,0,0,1-1.645,2.531.588.588,0,0,1-.336.107" transform="translate(-149.029 -17.004)" fill="#155110"/>
    <path id="패스_121" data-name="패스 121" d="M195.012,62.6l8.039-.006v.959l-11.24.008,0-7.228s.054-3.208,3.951-3.211c0,0-2.847.73-2.772,3.321l0,3.521a3.576,3.576,0,0,0,1.616,2.507.707.707,0,0,0,.407.129" transform="translate(-149.029 -17.004)" fill="#155110"/>
    <path id="패스_122" data-name="패스 122" d="M162.083,68.532h.737l1.651,6.858,1.592-6.86h.811l-1.764,7.844h-1.278Z" transform="translate(-149.029 -16.993)" fill="#155110"/>
    <rect id="사각형_33" data-name="사각형 33" width="0.86" height="7.843" transform="translate(20.649 51.533)" fill="#155110"/>
    <path id="패스_123" data-name="패스 123" d="M174.852,76.367h-.9l-.006-7.843h.369l.369.824s.386-1.015,1.271-1.016a1.27,1.27,0,0,1,1.346,1.309v1.014l-.765-.008v-.92a.69.69,0,0,0-.159-.451.716.716,0,0,0-.753-.187,1.461,1.461,0,0,0-.783,1.356Z" transform="translate(-149.029 -16.994)" fill="#155110"/>
    <rect id="사각형_34" data-name="사각형 34" width="0.835" height="7.843" transform="translate(30.894 51.526)" fill="#155110"/>
    <rect id="사각형_35" data-name="사각형 35" width="0.835" height="7.843" transform="translate(42.392 51.518)" fill="#155110"/>
    <line id="선_3" data-name="선 3" x2="0.005" y2="7.803" transform="translate(35.264 51.564)" fill="#839b80"/>
    <path id="패스_124" data-name="패스 124" d="M187.389,68.738a1.555,1.555,0,0,0-.73-.174l-2.366-.007.005,7.8h2.187a2.531,2.531,0,0,0,.684-.152,1.511,1.511,0,0,0,.976-1.42l0-4.793a1.448,1.448,0,0,0-.753-1.255m-.1,6.007a.9.9,0,0,1-.655.871l0,0a.3.3,0,0,1-.073.009h-1.376l0-6.389h1.263a.751.751,0,0,1,.282.049.838.838,0,0,1,.362.288,1.1,1.1,0,0,1,.2.649Z" transform="translate(-149.029 -16.993)" fill="#155110"/>
    <path id="패스_125" data-name="패스 125" d="M199.514,69.638c-.038-1.156-1.45-1.265-1.45-1.265h-1.008a1.335,1.335,0,0,0-1.362,1.366v.91h.817l.018-.873a.719.719,0,0,1,.3-.59.68.68,0,0,1,.383-.111h.638a.856.856,0,0,1,.289.045.805.805,0,0,1,.362.268.951.951,0,0,1,.186.588l-.021,2.084-1.855-.023a1.239,1.239,0,0,0-1.228,1.316l0,1.7c-.012.54.11.663.11.663.356.885,1.561.847,1.561.847a1.736,1.736,0,0,0,1.547-.941h.111l.271.731h.331s.034-5.556,0-6.712m-.832,5.139a1.4,1.4,0,0,1-1.412,1.01s-.835.135-.848-.676V73.425s0-.638.528-.75h1.732Z" transform="translate(-149.029 -16.994)" fill="#155110"/>
    <path id="패스_126" data-name="패스 126" d="M202.965,68.544l.005,7.8h.836l0-5.855a1.528,1.528,0,0,1,.517-1.167,1.092,1.092,0,0,1,.514-.256s1.154-.2,1.228.491l0,6.786h.86l0-6.587a1.416,1.416,0,0,0-.312-.9,1.693,1.693,0,0,0-1.666-.485,1.642,1.642,0,0,0-1.314.859l-.271-.682Z" transform="translate(-149.029 -16.994)" fill="#155110"/>
    <path id="패스_127" data-name="패스 127" d="M212.413,68.72l0,5.859q0,1.13.043,1.758h-.92a16.1,16.1,0,0,0,.083-1.757l0-4.4c-.195.419-.391.83-.808,1.611-.3-.2-.432-.256-.739-.479a11.825,11.825,0,0,0,1.149-2.156,11.438,11.438,0,0,0,.875-2.227c.4.1.5.1.992.2a5.641,5.641,0,0,0-.676,1.588m3.347.541q0-1.882-.044-2.511h.878q-.04.545-.04,2.512H218.1q1,0,1.38-.043v.8q-.376-.042-1.3-.041h-1.427a10.446,10.446,0,0,0,3.175,4.4,8.2,8.2,0,0,1-.783.707,9.946,9.946,0,0,1-2.6-3.765l0,3.683q0,.587.043,1.423h-.92A13.113,13.113,0,0,0,215.764,75l0-3.683a13.365,13.365,0,0,1-2.172,3.852c-.4-.3-.5-.394-.793-.592a12.914,12.914,0,0,0,2.674-4.6H214.3q-.711,0-1.213.043v-.8q.669.042,1.255.041Z" transform="translate(-149.029 -16.995)" fill="#afce0c"/>
    <path id="패스_128" data-name="패스 128" d="M157.135,79.6h.691l0,2.651h1.814l0-2.651h.662l0,5.994h-.72l0-2.752h-1.742l0,2.752h-.706Z" transform="translate(-149.029 -16.986)" fill="#155110"/>
    <path id="패스_129" data-name="패스 129" d="M165.933,80.384c-.005-.064-.247-.951-1.564-.95,0,0-1.374-.056-1.575.953l0,4.249a.827.827,0,0,0,.145.475,1.646,1.646,0,0,0,1.442.662s1.3.026,1.525-.9a1.056,1.056,0,0,0,.027-.257c0-.65,0-4.155,0-4.234m-.648.2,0,3.908a.686.686,0,0,1-.587.683,1.675,1.675,0,0,1-.377.006.97.97,0,0,1-.649-.192.546.546,0,0,1-.2-.427l0-3.926a.565.565,0,0,1,.319-.519,1.325,1.325,0,0,1,.588-.093c.993,0,.907.56.907.56" transform="translate(-149.029 -16.986)" fill="#155110"/>
    <path id="패스_130" data-name="패스 130" d="M167.834,80.123h1.181l0,5.533h.677l0-5.533h1.181v-.533l-3.038,0Z" transform="translate(-149.029 -16.986)" fill="#155110"/>
    <path id="패스_131" data-name="패스 131" d="M173.564,80.1h1.987v-.519l-2.635,0,0,6.008,2.721,0V85.06l-2.059.016,0-2.276h1.613v-.548H173.58Z" transform="translate(-149.029 -16.986)" fill="#155110"/>
    <path id="패스_132" data-name="패스 132" d="M177.84,79.583l0,6.066,2.39,0v-.605h-1.728l0-5.461Z" transform="translate(-149.029 -16.986)" fill="#155110"/>
    <path id="패스_133" data-name="패스 133" d="M203.557,81.447h.674V80.6a1.175,1.175,0,0,0-1.048-1.212h-.94a.348.348,0,0,0-.08.008,1.124,1.124,0,0,0-.889,1.123l0,.1a2.2,2.2,0,0,0,.653,1.532l1.579,1.644a.785.785,0,0,1,.175.48v.44s.025.475-.862.476a1.564,1.564,0,0,1-.266-.029.862.862,0,0,1-.7-.848v-.673h-.638v.784a1.2,1.2,0,0,0,1,1.262l.025.005h.977a1.175,1.175,0,0,0,.629-.176.782.782,0,0,0,.381-.612l.012-.709a1.567,1.567,0,0,0-.475-1.153l-1.511-1.47a1.163,1.163,0,0,1-.353-.836v-.013a.771.771,0,0,1,.843-.773l.018,0h.027a.768.768,0,0,1,.761.772Z" transform="translate(-149.029 -16.986)" fill="#155110"/>
    <path id="패스_134" data-name="패스 134" d="M224.206,81.433h.675v-.846a1.176,1.176,0,0,0-1.048-1.212h-.94a.311.311,0,0,0-.081.008,1.122,1.122,0,0,0-.888,1.123l0,.1a2.2,2.2,0,0,0,.653,1.532l1.579,1.644a.784.784,0,0,1,.175.479V84.7s.025.475-.862.476a1.564,1.564,0,0,1-.266-.029.862.862,0,0,1-.7-.848v-.673h-.637v.784a1.2,1.2,0,0,0,1,1.262l.025,0h.977a1.161,1.161,0,0,0,.629-.176.779.779,0,0,0,.381-.612l.012-.708a1.575,1.575,0,0,0-.475-1.153l-1.511-1.47a1.168,1.168,0,0,1-.354-.836V80.7a.772.772,0,0,1,.844-.773l.018,0h.027a.77.77,0,0,1,.761.773Z" transform="translate(-149.029 -16.986)" fill="#155110"/>
    <path id="패스_135" data-name="패스 135" d="M193.286,83.4s.712-.388.749-.738V80.561a.79.79,0,0,0-.09-.366,1.308,1.308,0,0,0-.6-.56.809.809,0,0,0-.356-.08h-1.753l-.009,6.066h.675V83.406h.787l1.089,2.214h.75Zm-.3-.564h-1.107l0-2.643h1.183a.548.548,0,0,1,.356.45v1.857c-.037.3-.431.335-.431.335" transform="translate(-149.029 -16.986)" fill="#155110"/>
    <path id="패스_136" data-name="패스 136" d="M214.271,83.391s.712-.388.75-.739l0-2.106a.777.777,0,0,0-.09-.365,1.3,1.3,0,0,0-.6-.56.813.813,0,0,0-.356-.081l-1.754,0-.008,6.066h.675l0-2.215h.788l1.088,2.214h.75Zm-.3-.564h-1.108V80.184h1.182a.546.546,0,0,1,.357.449V82.49c-.037.3-.431.336-.431.336" transform="translate(-149.029 -16.986)" fill="#155110"/>
    <path id="패스_137" data-name="패스 137" d="M209.814,80.427c0-.064-.244-.94-1.546-.94,0,0-1.358-.056-1.557.942l0,4.2a.82.82,0,0,0,.143.47,1.63,1.63,0,0,0,1.426.654s1.282.025,1.507-.889a1.031,1.031,0,0,0,.027-.254c0-.642,0-4.107,0-4.184m-.641.2,0,3.863a.678.678,0,0,1-.58.675,1.639,1.639,0,0,1-.373.006.954.954,0,0,1-.641-.19.539.539,0,0,1-.2-.423l0-3.88a.56.56,0,0,1,.315-.513,1.32,1.32,0,0,1,.581-.092c.982,0,.9.554.9.554" transform="translate(-149.029 -16.986)" fill="#155110"/>
    <path id="패스_138" data-name="패스 138" d="M197.076,80.079h1.935v-.516l-2.567,0,0,5.973,2.651,0v-.53l-2.006.016,0-2.263h1.571v-.544h-1.571Z" transform="translate(-149.029 -16.986)" fill="#155110"/>
    <path id="패스_139" data-name="패스 139" d="M184.9,82.237a.936.936,0,0,1-.442-.593,1.028,1.028,0,0,1-.046-.306v-.927a.39.39,0,0,1,.255-.371,1.785,1.785,0,0,1,.618-.109,1.447,1.447,0,0,1,.42.042.571.571,0,0,1,.4.555l0,1.042h.612l.025-.914a1.178,1.178,0,0,0-.654-1.133,1.188,1.188,0,0,0-.51-.107h-.523a2.417,2.417,0,0,0-.525.106c-.3.091-.735.312-.758.663v1.206a1.29,1.29,0,0,0,.437.949s-.615.256-.666.718v1.657a.892.892,0,0,0,.29.67c.019.017.04.034.062.052a1.423,1.423,0,0,0,.878.286h.949a.974.974,0,0,0,.893-.522,1.349,1.349,0,0,0,.157-.657V82.877h.717v-.64Zm1.144,2.36a.682.682,0,0,1-.46.646h-.005a.409.409,0,0,1-.13.019h-.675a.573.573,0,0,1-.577-.48V83.341a.71.71,0,0,1,.422-.538h1.442Z" transform="translate(-149.029 -16.986)" fill="#155110"/>
    <path id="패스_140" data-name="패스 140" d="M217.239,80.1h1.181l0,5.533h.677l0-5.533h1.181v-.533l-3.038,0Z" transform="translate(-149.029 -16.986)" fill="#155110"/>
  </g>
</svg>
