<svg xmlns="http://www.w3.org/2000/svg" width="20" height="20" viewBox="0 0 20 20">
  <g id="그룹_113" data-name="그룹 113" transform="translate(-0.132 -0.296)">
    <rect id="사각형_138" data-name="사각형 138" width="20" height="20" transform="translate(0.132 0.296)" fill="#fff" opacity="0"/>
    <path id="Icon_awesome-twitter" data-name="Icon awesome-twitter" d="M15.317,6.836c.011.152.011.3.011.455a9.887,9.887,0,0,1-9.955,9.955A9.888,9.888,0,0,1,0,15.676a7.238,7.238,0,0,0,.845.043,7.007,7.007,0,0,0,4.344-1.495A3.505,3.505,0,0,1,1.917,11.8a4.412,4.412,0,0,0,.661.054,3.7,3.7,0,0,0,.921-.119A3.5,3.5,0,0,1,.693,8.3V8.255A3.524,3.524,0,0,0,2.275,8.7,3.5,3.5,0,0,1,1.192,4.02,9.945,9.945,0,0,0,8.406,7.681a3.95,3.95,0,0,1-.087-.8,3.5,3.5,0,0,1,6.055-2.394A6.889,6.889,0,0,0,16.6,3.641a3.489,3.489,0,0,1-1.538,1.928,7.014,7.014,0,0,0,2.015-.542,7.521,7.521,0,0,1-1.755,1.809Z" transform="translate(1.76 -0.235)" fill="#707070"/>
  </g>
</svg>
