<svg xmlns="http://www.w3.org/2000/svg" width="20" height="20" viewBox="0 0 20 20">
  <g id="그룹_112" data-name="그룹 112" transform="translate(-0.296 -0.296)">
    <rect id="사각형_139" data-name="사각형 139" width="20" height="20" transform="translate(0.296 0.296)" fill="#fff" opacity="0"/>
    <path id="Icon_awesome-instagram" data-name="Icon awesome-instagram" d="M7.581,5.932A3.888,3.888,0,1,0,11.469,9.82,3.882,3.882,0,0,0,7.581,5.932Zm0,6.416A2.528,2.528,0,1,1,10.108,9.82a2.532,2.532,0,0,1-2.528,2.528Zm4.954-6.575a.907.907,0,1,1-.907-.907A.9.9,0,0,1,12.535,5.773Zm2.575.92a4.488,4.488,0,0,0-1.225-3.178,4.517,4.517,0,0,0-3.178-1.225c-1.252-.071-5-.071-6.257,0A4.511,4.511,0,0,0,1.273,3.513,4.5,4.5,0,0,0,.048,6.69c-.071,1.252-.071,5,0,6.257a4.488,4.488,0,0,0,1.225,3.178,4.523,4.523,0,0,0,3.178,1.225c1.252.071,5,.071,6.257,0a4.488,4.488,0,0,0,3.178-1.225,4.517,4.517,0,0,0,1.225-3.178c.071-1.252.071-5,0-6.254Zm-1.618,7.6a2.559,2.559,0,0,1-1.442,1.442,16.713,16.713,0,0,1-4.47.3,16.843,16.843,0,0,1-4.47-.3A2.559,2.559,0,0,1,1.669,14.29a16.713,16.713,0,0,1-.3-4.47,16.843,16.843,0,0,1,.3-4.47A2.559,2.559,0,0,1,3.11,3.909a16.713,16.713,0,0,1,4.47-.3,16.843,16.843,0,0,1,4.47.3A2.559,2.559,0,0,1,13.492,5.35a16.713,16.713,0,0,1,.3,4.47A16.7,16.7,0,0,1,13.492,14.29Z" transform="translate(2.785 0.336)" fill="#707070"/>
  </g>
</svg>
